<svg width="32" height="32" viewBox="0 0 32 32" fill="none" xmlns="http://www.w3.org/2000/svg">
<g clip-path="url(#clip0_5_7)">
<path d="M3.40086 9.75283C3.86682 6.65122 6.27864 4.2394 9.38025 3.77344C11.4248 3.46629 13.7412 3.2 15.6274 3.2C17.5136 3.2 19.8301 3.46629 21.8746 3.77344C24.9762 4.2394 27.388 6.65122 27.854 9.75283C28.1611 11.7973 28.4274 14.1138 28.4274 16C28.4274 17.8862 28.1611 20.2027 27.854 22.2472C27.388 25.3488 24.9762 27.7606 21.8746 28.2266C19.8301 28.5337 17.5136 28.8 15.6274 28.8C13.7412 28.8 11.4248 28.5337 9.38025 28.2266C6.27864 27.7606 3.86682 25.3488 3.40086 22.2472C3.09371 20.2027 2.82742 17.8862 2.82742 16C2.82742 14.1138 3.09371 11.7973 3.40086 9.75283Z" fill="url(#paint0_linear_5_7)"/>
<g filter="url(#filter0_d_5_7)">
<path d="M16.032 21.18C15.384 21.18 14.808 21.06 14.304 20.82C13.8 20.58 13.396 20.244 13.092 19.812C12.796 19.38 12.612 18.88 12.54 18.312H12.768C12.848 18.84 13.028 19.304 13.308 19.704C13.588 20.096 13.96 20.4 14.424 20.616C14.888 20.832 15.424 20.94 16.032 20.94C16.904 20.94 17.58 20.768 18.06 20.424C18.548 20.072 18.792 19.58 18.792 18.948C18.792 18.484 18.66 18.116 18.396 17.844C18.132 17.572 17.8 17.376 17.4 17.256C17 17.128 16.492 17.012 15.876 16.908H15.864C15.216 16.804 14.684 16.688 14.268 16.56C13.852 16.432 13.496 16.224 13.2 15.936C12.912 15.648 12.768 15.248 12.768 14.736C12.768 14.272 12.892 13.864 13.14 13.512C13.388 13.16 13.732 12.892 14.172 12.708C14.62 12.516 15.136 12.42 15.72 12.42C16.328 12.42 16.864 12.536 17.328 12.768C17.792 12.992 18.164 13.316 18.444 13.74C18.732 14.164 18.904 14.664 18.96 15.24H18.72C18.624 14.432 18.308 13.8 17.772 13.344C17.244 12.888 16.56 12.66 15.72 12.66C15.184 12.66 14.712 12.744 14.304 12.912C13.896 13.08 13.576 13.324 13.344 13.644C13.12 13.956 13.008 14.32 13.008 14.736C13.008 15.168 13.132 15.508 13.38 15.756C13.628 16.004 13.936 16.188 14.304 16.308C14.68 16.42 15.164 16.528 15.756 16.632C15.772 16.64 15.792 16.644 15.816 16.644C15.84 16.644 15.86 16.648 15.876 16.656C15.892 16.664 15.908 16.668 15.924 16.668C15.94 16.668 15.956 16.672 15.972 16.68C16.644 16.8 17.18 16.928 17.58 17.064C17.988 17.192 18.332 17.408 18.612 17.712C18.892 18.008 19.032 18.42 19.032 18.948C19.032 19.42 18.912 19.824 18.672 20.16C18.432 20.488 18.088 20.74 17.64 20.916C17.192 21.092 16.656 21.18 16.032 21.18Z" fill="#CECECE"/>
</g>
</g>
<defs>
<filter id="filter0_d_5_7" x="11" y="9" width="10" height="16" filterUnits="userSpaceOnUse" color-interpolation-filters="sRGB">
<feFlood flood-opacity="0" result="BackgroundImageFix"/>
<feColorMatrix in="SourceAlpha" type="matrix" values="0 0 0 0 0 0 0 0 0 0 0 0 0 0 0 0 0 0 127 0" result="hardAlpha"/>
<feOffset dy="1"/>
<feGaussianBlur stdDeviation="0.5"/>
<feComposite in2="hardAlpha" operator="out"/>
<feColorMatrix type="matrix" values="0 0 0 0 0 0 0 0 0 0 0 0 0 0 0 0 0 0 1 0"/>
<feBlend mode="normal" in2="BackgroundImageFix" result="effect1_dropShadow_5_7"/>
<feBlend mode="normal" in="SourceGraphic" in2="effect1_dropShadow_5_7" result="shape"/>
</filter>
<linearGradient id="paint0_linear_5_7" x1="4.31371" y1="4.68629" x2="26.9411" y2="27.3137" gradientUnits="userSpaceOnUse">
<stop stop-color="#1A1A1A"/>
<stop offset="1" stop-color="#090909"/>
</linearGradient>
<clipPath id="clip0_5_7">
<rect width="32" height="32" fill="white"/>
</clipPath>
</defs>
</svg>
