<svg width="4159" height="4169" viewBox="0 0 4159 4169" fill="none" xmlns="http://www.w3.org/2000/svg">
<path fill-rule="evenodd" clip-rule="evenodd" d="M11 5.5V11H5.5H0V504.5V998H5.5H11V1003.5V1009H510H1009V510V11H1003.5H998V5.5V0H504.5H11V5.5ZM1442 5.5V11H1436.5H1431V149.5V288H1364.65H1298.3L1297.65 279.75C1297.3 275.212 1297.01 242.813 1297.01 207.75L1297 144H1227.65C1189.51 144 1154.86 144.291 1150.65 144.647L1143 145.293V211.147V277H1148H1153V282.5V288L1192.25 288.184C1213.84 288.286 1241.29 288.225 1253.25 288.049L1275 287.728V293.364V299H1280.43H1285.86L1286.18 364.917C1286.36 401.172 1286.88 431.209 1287.33 431.667C1287.79 432.125 1320.04 432.64 1358.99 432.81L1429.82 433.121L1430.46 443.31C1430.82 448.915 1430.97 481.175 1430.81 515L1430.5 576.5L1291.75 576.754L1153 577.007V582.504V588H1148H1143V649V710H1148H1153V715.5V721H1436H1719V715.5V710H1724.5H1730V571.5V433H1796.47H1862.94L1863.22 575.917C1863.37 654.521 1863.88 719.209 1864.33 719.667C1864.79 720.125 1894.58 720.642 1930.53 720.815L1995.9 721.129L1996.2 726.315L1996.5 731.5L2001.75 731.802L2007 732.105L2007.01 862.302C2007.01 933.911 2007.3 996.213 2007.65 1000.75L2008.3 1009H2079.5H2150.7L2151.35 1017.25C2151.7 1021.79 2151.99 1054.18 2151.99 1089.24L2152 1152.99L2218.25 1153.24L2284.5 1153.5L2284.76 1219.75L2285.01 1286H2226.16C2193.79 1286 2163.86 1286.29 2159.66 1286.65L2152.01 1287.29L2151.76 1358.9L2151.5 1430.5L2084.75 1430.76L2018 1431.01V1425.51V1420H2013.01H2008.01L2007.76 1353.25L2007.5 1286.5L1940.75 1286.24L1874 1285.99V1280.49V1275H1869H1864L1863.97 1258.25C1863.95 1249.04 1863.97 1156.79 1864 1053.25L1864.06 865H1791.53H1719V931.5V998H1652.65H1586.3L1585.65 989.75C1585.3 985.213 1585.01 972.612 1585.01 961.75L1585 942H1580H1575V937V932H1580H1585V898.5V865H1508H1431L1430.99 1000.75C1430.99 1075.41 1430.7 1140.21 1430.35 1144.74L1429.7 1152.99L1358.1 1153.24L1286.5 1153.5L1286.19 1214C1286.03 1247.28 1286.18 1279.56 1286.54 1285.75L1287.2 1297H1359.1H1431V1292.05V1287.1L1436.25 1286.8L1441.5 1286.5L1441.55 1220.78C1441.58 1184.64 1441.96 1154.71 1442.39 1154.28C1443.35 1153.31 1692.25 1152.61 1707.75 1153.53L1719 1154.2V1220.1V1286H1652.55H1586.1L1585.8 1291.75L1585.5 1297.5L1580.25 1297.8L1575 1298.1V1442.05V1586H1503H1431V1652.5V1719H1436.5H1442V1724.5V1730H1575H1708V1724.5V1719H1718.95H1729.9L1730.2 1713.25L1730.5 1707.5L1735.7 1707.2L1740.9 1706.9L1741.2 1701.7L1741.5 1696.5L1746.7 1696.2L1751.9 1695.9L1752.2 1690.7L1752.5 1685.5L1757.7 1685.2L1762.9 1684.9L1763.2 1679.7L1763.5 1674.5L1768.7 1674.2L1773.9 1673.9L1774.2 1668.7L1774.5 1663.5L1780.25 1663.2L1786 1662.9V1658V1653.1L1791.25 1652.8L1796.5 1652.5L1796.8 1647.33L1797.1 1642.16L1808.05 1641.45L1819 1640.74V1635.37V1630H1824.5H1830V1625.11V1620.22L1841 1619.5L1852 1618.78V1613.39V1608H1863.5H1875V1602.5V1597H1891H1907V1591.53V1586.05L1890.75 1585.78L1874.5 1585.5L1874.2 1579.75L1873.9 1574H1869.08H1864.27L1863.82 1520.25C1863.57 1490.69 1863.56 1463.46 1863.8 1459.75L1864.23 1453H1869.12H1874V1447.6V1442.2L1885.25 1441.54C1891.44 1441.18 1919 1441.02 1946.5 1441.19L1996.5 1441.5L1996.8 1446.75L1997.1 1452H2002.05H2007V1502.5V1553H2090.5H2174V1558V1563H2184.84C2190.8 1563 2203.18 1563.3 2212.34 1563.66L2229 1564.31V1569.01V1573.7L2237.25 1574.35C2241.79 1574.7 2249.19 1574.99 2253.7 1574.99L2261.9 1575L2262.2 1580.25L2262.5 1585.5L2279.25 1585.77L2296 1586.05V1591.52V1597H2307H2318V1602.5V1608H2329H2340V1613.5V1619H2351H2362V1624.45V1629.9L2367.75 1630.2L2373.5 1630.5L2373.8 1635.63L2374.1 1640.77L2384.55 1641.48L2395 1642.19V1647.05V1651.9L2400.75 1652.2L2406.5 1652.5L2406.8 1657.7L2407.1 1662.9L2412.3 1663.2L2417.5 1663.5L2417.8 1668.63L2418.1 1673.77L2428.46 1674.47L2438.82 1675.18L2439.52 1685.49L2440.23 1695.8L2451.11 1696.51L2462 1697.22V1702.61V1708H2467.5H2473V1713.5V1719H2479H2485V1724.5V1730H2529H2573V1724.5V1719H2578.5H2584V1652.5V1586H2651H2718V1597V1608H2723H2728V1663.5V1719H2733.5H2739V1724.5V1730H2872H3005V1724.5V1719H3010.5H3016V1660.15C3016 1627.78 3016.29 1597.86 3016.65 1593.65L3017.29 1586H3227.65H3438V1652V1718H3443.5H3449V1724V1730H3515.5H3582V1940.35V2150.7L3573.75 2151.35C3569.21 2151.7 3539.29 2151.99 3507.25 2151.99L3449 2152V2157.5V2163H3443.5H3438V2224V2285H3443.5H3449V2290.5V2296H3510H3571V2301.5V2307H3576.5H3582V2440V2573H3515.5H3449V2512V2451H3443.5H3438V2445.5V2440L3379.75 2439.99C3347.71 2439.99 3317.79 2439.7 3313.25 2439.35L3305 2438.7V2300.35V2162H3299.5H3294V2157V2152L3235.75 2151.99C3203.71 2151.99 3173.79 2151.7 3169.25 2151.35L3161 2150.7V2084.35V2018H3226.95H3292.9L3293.2 2012.75L3293.5 2007.5L3299.25 2007.2L3305 2006.9V1862.95V1719H3233.14H3161.28L3160.58 1738.25C3160.19 1748.84 3159.98 1781.01 3160.1 1809.75C3160.23 1838.49 3160 1862.34 3159.58 1862.75C3159.17 1863.16 3064.37 1863.62 2948.92 1863.78L2739 1864.05V1869.03V1874H2733.5H2728V1938.35C2728 1973.74 2728.29 2006.14 2728.65 2010.35L2729.29 2018H2867.65H3006.01L3005.76 2084.75L3005.5 2151.5L2866.75 2151.75L2728 2152.01V2218V2284H2722.5H2717V2289.5V2295H2656H2595V2290V2285H2589.5H2584V2257V2229H2578.5H2573V2240.5V2252H2567.5H2562V2263V2274H2556.5H2551V2285V2296H2545.53H2540.07L2539.78 2306.75L2539.5 2317.5L2534.36 2317.8L2529.21 2318.1L2528.5 2329.05L2527.78 2340H2522.89H2518V2345.5V2351H2512.61H2507.22L2506.5 2362L2505.78 2373H2500.39H2495V2378.45V2383.9L2489.75 2384.2L2484.5 2384.5L2484.2 2390.25L2483.9 2396H2478.45H2473V2401.5V2407H2467.5H2462V2412.5V2418H2456.5H2451V2423.5V2429H2445.5H2440V2434.5V2440H2434.5H2429V2445.5V2451H2423.5H2418V2456.5V2462H2412H2406V2467.5V2473H2395.5H2385V2478.5V2484H2379H2373V2489.39V2494.78L2362 2495.5L2351 2496.22V2501V2505.78L2340 2506.5L2329 2507.22V2512V2516.78L2318 2517.5L2307 2518.22V2523V2527.78L2296 2528.5L2285 2529.22V2533.96V2538.7L2275.85 2539.35C2270.81 2539.71 2263.39 2540 2259.35 2540H2252V2544.85V2549.7L2242.85 2550.35C2237.81 2550.71 2230.16 2551 2225.85 2551H2218V2555.85V2560.7L2209.75 2561.35C2205.21 2561.7 2192.84 2561.99 2182.25 2561.99L2163 2562V2567.5V2573H2085.5H2008V2567.5V2562L1999.25 2561.99C1994.44 2561.99 1986.79 2561.7 1982.25 2561.35L1974 2560.7V2555.85V2551H1966.15C1961.84 2551 1954.19 2550.71 1949.15 2550.35L1940 2549.7V2544.85V2540L1932.25 2539.99C1927.99 2539.99 1920.79 2539.7 1916.25 2539.35L1908 2538.7V2533.97V2529.24L1896.5 2528.52L1885 2527.8V2522.9V2518H1880H1875V2522.95V2527.9L1869.25 2528.2L1863.5 2528.5L1863.19 2545C1863.01 2554.07 1863.17 2566.56 1863.53 2572.75L1864.2 2584H1930.1H1996V2589.5V2595H2001.5H2007V2656V2717H2001.5H1996V2722.5V2728H1857.5H1719V2867V3006H1713.5H1708V3011V3016H1577.15C1505.18 3016 1442.86 3016.29 1438.65 3016.65L1431 3017.29V3088.65V3160H1364.65H1298.3L1297.65 3151.75C1297.3 3147.21 1297.01 3115.1 1297.01 3080.4L1297 3017.29L1289.35 3016.65C1279.39 3015.8 1160.61 3015.8 1150.65 3016.65L1143 3017.29V3083.65V3150H1147.95H1152.9L1153.2 3155.25L1153.5 3160.5L1164 3160.52C1169.78 3160.53 1199.59 3160.64 1230.25 3160.77L1286 3161V3299.5V3438H1281H1276V3443.5V3449H1209.5H1143V3515.5V3582H1148H1153V3587.5V3593H1219.5H1286V3659.35V3725.7L1277.75 3726.35C1273.21 3726.7 1243.54 3726.99 1211.8 3726.99L1154.1 3727L1153.8 3732.25L1153.5 3737.5L1148.25 3737.8L1143 3738.1V3804.05V3870H1148H1153V3875.5V3881H1292H1431V3875.5V3870H1435.87H1440.74L1441.46 3859.81C1441.86 3854.2 1442.08 3794.69 1441.95 3727.56C1441.83 3660.43 1441.78 3602.69 1441.86 3599.25L1442 3593H1580.5H1719V3659.35V3725.7L1710.75 3726.35C1706.21 3726.7 1678.76 3726.99 1649.75 3726.99L1597 3727V3731.95V3736.9L1591.25 3737.2L1585.5 3737.5L1585.2 3742.75L1584.9 3748H1579.95H1575V3881.5V4015H1508.5H1442V4020V4025H1436.5H1431V4092V4159H1436.5H1442V4164V4169H1508.5H1575V4158.5V4148H1580H1585V4097.5V4047H1580H1575V4042V4037H1580.5H1586V4031V4025H1647H1708V4020V4015H1713.5H1719V4009.5V4004H1724.5H1730V3942.5V3881H1796.5H1862.99L1863.25 4019.75L1863.5 4158.5L1868.75 4158.8L1874 4159.1V4164.05V4169H1935.5H1997V4164V4159H2002.5H2008V4020.6V3882.2L2019.25 3881.54C2025.44 3881.18 2057.72 3881.03 2091 3881.19L2151.5 3881.5L2151.76 3948.25L2152.01 4015H2157.51H2163V4019.99V4024.98L2223.75 4025.24L2284.5 4025.5L2284.76 4086.75L2285.01 4148H2289.89H2294.76L2295.48 4158.5L2296.19 4169H2362.6H2429V4164V4159H2434.5H2440V4092.65V4026.3L2448.25 4025.65C2452.79 4025.3 2482.71 4025.01 2514.75 4025.01L2573 4025V4020V4015H2578.5H2584V3942.5V3870H2512H2440V3941.85V4013.7L2431.75 4014.35C2427.21 4014.7 2398.52 4014.99 2368 4014.99C2337.48 4014.99 2308.79 4014.7 2304.25 4014.35L2296 4013.7V3941.85V3870H2229H2162V3864.5V3859H2157H2152V3798V3737H2146.5H2141V3732V3727H2080H2019V3732V3737H2013H2007V3798V3859H2002H1997V3864.5V3870H1935.5H1874V3864.5V3859H1868.35H1862.7L1863.35 3850.75C1863.7 3846.21 1863.99 3724.04 1863.99 3579.25L1864 3316H1869H1874V3310.56V3305.13L1939.92 3304.81C1976.17 3304.64 2006.21 3304.12 2006.67 3303.67C2007.12 3303.21 2007.64 3273.4 2007.81 3237.42L2008.13 3172H2013.06H2018V3166.5V3161.01L2156.75 3160.75L2295.5 3160.5L2295.76 3093.75L2296.01 3027H2301.01H2306V3022V3017L2364.75 3016.99C2397.06 3016.99 2427.21 3016.7 2431.75 3016.35L2440 3015.7V2949.35V2883H2445.5H2451V2877.5V2872H2517.5H2584V2805.5V2739H2589.5H2595V2733.5V2728H2655.95H2716.9L2717.2 2733.75L2717.5 2739.5L2722.75 2739.8L2728 2740.1V2944.5V3148.9L2722.75 3149.2L2717.5 3149.5L2717.2 3154.75L2716.9 3160L2653.2 3160.01C2618.16 3160.01 2585.79 3160.3 2581.25 3160.65L2573 3161.3V3227.65V3294H2512H2451V3299V3304H2445.5H2440V3515.5V3727H2445.5H2451V3732V3737H2583.95H2716.9L2717.2 3742.75L2717.5 3748.5L2722.75 3748.8L2728 3749.1V3882.05V4015H2733.5H2739V4020V4025H2797.85C2830.22 4025 2860.14 4025.29 2864.35 4025.65L2872 4026.29V4092.65V4159H2877.5H2883V4164V4169H2944H3005V4164V4159H3010.43H3015.86L3016.18 4093.08C3016.36 4056.83 3016.88 4026.79 3017.33 4026.33C3017.79 4025.88 3047.58 4025.36 3083.53 4025.19L3148.9 4024.87L3149.2 4019.69L3149.5 4014.5L3154.66 4014.2L3159.81 4013.9L3160.46 4003.7C3160.81 3998.09 3160.97 3935.9 3160.8 3865.5L3160.5 3737.5L3154.75 3737.2L3149 3736.9V3732.02V3727.14L3083.58 3726.82C3047.6 3726.64 3017.79 3726.12 3017.33 3725.67C3016.29 3724.62 3015.57 3619.46 3016.5 3604.25L3017.2 3593H3155.6H3294V3732V3871H3299H3304V3876V3881H3371H3438V3948V4015H3371.5H3305V4020V4025H3299.5H3294V4092V4159H3299.5H3305V4164V4169H3515.45H3725.9L3726.2 4163.75L3726.5 4158.5L3731.75 4158.2L3737 4157.9V4092V4026.1L3731.75 4025.8L3726.5 4025.5L3726.2 4020.25L3725.9 4015L3667.7 4014.99C3635.69 4014.99 3605.79 4014.7 3601.25 4014.35L3593 4013.7V3947.35V3881H3659.45H3725.9L3726.2 3875.75L3726.5 3870.5L3731.75 3870.2L3737 3869.9V3825.45V3781H3732H3727V3776V3771H3732H3737V3754V3737H3803.35H3869.7L3870.35 3728.75C3870.7 3724.21 3870.99 3694.29 3870.99 3662.25L3871 3604H3876H3881V3598.5V3593H3947.35H4013.7L4014.35 3584.75C4014.7 3580.21 4014.99 3550.29 4014.99 3518.25L4015 3460H4020H4025V3454.5V3449H4092H4159V3232.48V3015.96L3943.58 3016.23C3825.1 3016.38 3727.79 3016.88 3727.33 3017.33C3726.88 3017.79 3726.41 3045.47 3726.29 3078.83C3726.18 3112.2 3726.07 3144.11 3726.04 3149.75L3726 3160H3659.5H3592.99L3593.25 3016.25L3593.5 2872.5L3660.25 2872.24L3727 2871.99V2866.49V2861H3732H3737V2795.15V2729.29L3729.35 2728.65C3725.14 2728.29 3692.74 2728 3657.35 2728H3593L3593.01 2664.25C3593.01 2629.19 3593.3 2596.79 3593.65 2592.25L3594.3 2584H3726.65H3859V2589.5V2595H3864.5H3870V2733.5V2872H3942.5H4015V2806.05V2740.1L4020.25 2739.8L4025.5 2739.5L4025.8 2733.75L4026.1 2728H4092.55H4159L4158.75 2511.75L4158.5 2295.5L4092.3 2295.24L4026.1 2294.99L4025.8 2289.74L4025.5 2284.5L4020.25 2284.2L4015 2283.9V2223.56V2163.22L4026 2162.5L4037 2161.78V2156.89V2152H4098H4159V1935.51V1719.01L4092.25 1718.76L4025.5 1718.5L4025.2 1713.25L4024.9 1708H4019.95H4015V1647V1586H4087H4159.01L4158.75 1436.25L4158.5 1286.5L4092.3 1286.24L4026.1 1285.99L4025.8 1280.74L4025.5 1275.5L4020.25 1275.2L4015 1274.9V1213.95V1153H3942.5H3870V1217.35C3870 1252.74 3870.29 1285.14 3870.65 1289.34L3871.29 1296.99L3942.9 1297.24L4014.5 1297.5V1364V1430.5L3875.75 1430.75L3737 1431.01V1364V1297H3732.05H3727.1L3726.8 1291.75L3726.5 1286.5L3659.75 1286.24L3593 1285.99V1220.14V1154.3L3584.75 1153.65C3574.01 1152.82 3456.99 1152.82 3446.25 1153.65L3438 1154.3V1220.15V1286H3443.5H3449V1291.5V1297L3507.25 1297.01C3539.29 1297.01 3569.21 1297.3 3573.75 1297.65L3582 1298.3V1364V1429.7L3573.75 1430.35C3569.21 1430.7 3506.89 1430.99 3435.25 1430.99L3305 1431V1359.15V1287.3L3296.75 1286.65C3292.21 1286.3 3227.48 1286.01 3152.9 1286.01L3017.3 1286L3016.65 1277.75C3016.3 1273.21 3016.01 1081.35 3016.01 851.397L3016 433.293L3008.35 432.647C3004.14 432.291 2941.82 432 2869.85 432H2739V427.052V422.105L2733.75 421.802L2728.5 421.5L2728.24 360.25L2727.99 299H2733.49H2739V294.16V289.32L2763.75 288.662C2777.36 288.3 2807.29 288.003 2830.25 288.002L2872 288V216V144H2800.65H2729.3L2728.65 135.75C2728.3 131.213 2728.01 101.288 2728.01 69.25L2728 11H2722.5H2717V5.5V0H2650.5H2584V5.5V11H2578.5H2573V77.5V144L2578.75 144.162C2581.91 144.251 2609.48 144.196 2640 144.04C2670.52 143.884 2700.32 144.089 2706.2 144.495L2716.9 145.232L2717.2 150.366L2717.5 155.5L2722.75 155.802L2728 156.105V216.552V277H2723H2718V282.5V288H2651H2584V293.5V299H2578.5H2573V365.5V432H2440H2307V427V422H2301.56H2296.13L2295.81 356.083C2295.64 319.828 2295.12 289.791 2294.67 289.333C2294.21 288.875 2264.28 288.5 2228.17 288.5H2162.5L2162.2 293.75L2161.9 299H2156.95H2152V365.352V431.704L2160.25 432.346C2164.79 432.699 2194.42 432.991 2226.1 432.994L2283.71 433L2284.35 440.651C2284.71 444.859 2285 507.184 2285 579.151V710H2154.15C2082.18 710 2019.86 709.709 2015.65 709.354L2008.01 708.707L2007.75 570.604L2007.5 432.5L1940.75 432.243L1874 431.986V426.493V421H1869.08H1864.16L1863.83 366.75C1863.65 336.913 1863.65 309.688 1863.84 306.25L1864.18 300H1869.09H1874V294.65V289.299L1883.15 288.65C1888.19 288.292 1918.34 288 1950.15 288H2008V222.096V156.192L2018.5 155.477L2029 154.761V149.381V144H2090.5H2152V77.5V11H2146.5H2141V5.5V0H2080H2019V5.5V11H2013H2007V72V133H2002H1997V138.5V144H1935.5H1874V138.5V133H1869H1864L1863.89 115.75C1863.83 106.262 1863.87 80.944 1863.98 59.486C1864.1 38.028 1863.87 15.865 1863.47 10.236L1862.74 0H1652.37H1442V5.5ZM3172 5.5V11H3166.65H3161.3L3160.65 19.25C3159.81 30.155 3159.81 952.304 3160.66 984.25L3161.32 1009H3660.16H4159L4158.99 512.75C4158.99 239.813 4158.7 12.787 4158.35 8.25L4157.7 0H3664.85H3172V5.5ZM854 149.545V155H859.5H865V504.5V854H859.5H854V859.5V865H504.5H155V859.5V854H150H145V504.5V155H150.5H156V150.05V145.1L161.75 144.733C164.913 144.531 321.962 144.304 510.75 144.228L854 144.091V149.545ZM1852.8 149.75L1853.1 155H1858.05H1863V221.5V288H1796.5H1730V293.5V299H1724.5H1719V365.5V432H1580.5H1442L1441.82 409.75C1441.45 362.736 1441.85 289.812 1442.5 289.171C1442.87 288.802 1470.02 288.431 1502.83 288.346C1535.65 288.261 1565.31 288.149 1568.75 288.096L1575 288V282.5V277H1580H1585V249V221H1580H1575V216V211H1580H1585V205V199H1580H1575V194V189H1580H1585L1585.01 175.25C1585.01 167.688 1585.3 157.808 1585.65 153.296L1586.29 145.091L1591.9 144.733C1594.98 144.536 1654.88 144.403 1725 144.437L1852.5 144.5L1852.8 149.75ZM4003.8 149.75L4004.1 155H4009.55H4015L4014.99 501.75C4014.99 692.462 4014.7 852.212 4014.35 856.75L4013.7 865H3659.35H3305V510V155H3310.5H3316V149.492V143.984L3659.75 144.242L4003.5 144.5L4003.8 149.75ZM299.689 288.644C299.31 289.023 299 291.508 299 294.167V299H294H289V509.353V719.707L296.651 720.353C300.859 720.709 398.069 721 512.673 721H721.044L720.772 505.583C720.622 387.104 720.125 289.791 719.667 289.333C718.67 288.336 300.683 287.65 299.689 288.644ZM3449 293.5V299H3443.5H3438V504.5V710H3443.5H3449V715.502V721.005L3659.75 720.752L3870.5 720.5L3870.8 515.5C3870.97 402.75 3870.81 305.438 3870.46 299.25L3869.8 288H3659.4H3449V293.5ZM2717 726.5V732H2722.5H2728V792.448V852.895L2722.75 853.198L2717.5 853.5L2717.2 859.25L2716.9 865H2644.95H2573V931.5V998H2506.5H2440V865V732H2445.5H2451V726.5V721H2584H2717V726.5ZM1143 931.5V998H1148H1153V1003.5V1009H1220H1287V1003.5V998H1292H1297V931.5V865H1220H1143V931.5ZM2285 931.5V998H2218.5H2152V937V876H2157H2162V870.5V865H2223.5H2285V931.5ZM2872 1003.45V1141.9L2866.75 1142.2L2861.5 1142.5L2861.2 1147.75L2860.9 1153H2794.45H2728V1213.95V1274.9L2722.75 1275.2L2717.5 1275.5L2717.2 1280.75L2716.9 1286L2653.2 1286.01C2618.16 1286.01 2585.79 1286.3 2581.25 1286.65L2573 1287.3V1359.15V1431L2514.75 1430.99C2482.71 1430.99 2452.79 1430.7 2448.25 1430.35L2440 1429.7V1296.85V1164H2445.5H2451V1158.5V1153H2517.5H2584V1081.65V1010.3L2592.25 1009.65C2596.79 1009.3 2629.19 1009.01 2664.25 1009.01L2728 1009L2728.01 945.25C2728.01 910.188 2728.3 877.788 2728.65 873.25L2729.3 865H2800.65H2872V1003.45ZM2438.67 1010.33C2439.12 1010.79 2439.64 1040.6 2439.81 1076.58L2440.13 1142H2434.56H2429V1147.5V1153H2368H2307V1147.5V1142H2301.5H2296V1076.05V1010.1L2301.25 1009.7C2311.41 1008.93 2437.84 1009.51 2438.67 1010.33ZM5.75 1153.74L0 1154.1V1364.55V1575H5.5H11V1580.5V1586H77.5H144V1791.5V1997H139H134V2002V2007L75.25 2007.01C42.938 2007.01 12.787 2007.3 8.25 2007.65L0 2008.3V2079.5V2150.7L8.25 2151.35C12.787 2151.7 45.12 2151.99 80.1 2151.99L143.701 2152L144.35 2142.85C144.708 2137.81 145 2107.95 145 2076.49V2019.29L152.651 2018.65C156.859 2018.29 164.284 2018 169.151 2018H178V2013V2008H183H188V2012.99V2017.98L238.25 2018.24L288.5 2018.5L288.757 2084.6L289.014 2150.71L296.658 2151.35C306.598 2152.19 557.948 2152.19 568.75 2151.35L577 2150.7V2084.35V2018L712.75 2018.01C787.413 2018.01 852.212 2018.3 856.75 2018.65L865 2019.3V2080.15V2141H859.5H854V2146.5V2152H787.5H721V2157V2162H715.5H710V2228.5V2295L651.75 2295.01C619.712 2295.01 589.788 2295.3 585.25 2295.65L577 2296.3V2368.15V2440H643.5H710V2512V2584H782H854V2589.5V2595H859.5H865V2656V2717H859.5H854V2722.5V2728H782H710V2800V2872H643.5H577V2728V2584H571H565V2578.5V2573H427H289V2512.05V2451.1L294.25 2450.8L299.5 2450.5L299.802 2445.26L300.104 2440.01L366.302 2439.76L432.5 2439.5L432.757 2367.9L433.013 2296.3L424.757 2295.66C413.988 2294.82 163.018 2294.82 152.25 2295.65L144 2296.3V2434.65V2573H77.5H11V2578.5V2584H5.5H0V2656V2728H66.5H133V2733.5V2739H138.5H144V2805.5V2872H77.5H11V2877.5V2883H5.5H0V2944.5V3006H5.448H10.895L11.198 3011.25L11.5 3016.5H77.167C113.284 3016.5 143.209 3016.12 143.667 3015.67C144.125 3015.21 144.644 2985.4 144.821 2949.42L145.141 2884H150.021H154.9L155.2 2878.25L155.5 2872.5L221.601 2872.24L287.702 2871.99L288.345 2880.24C288.699 2884.78 288.991 2917.12 288.994 2952.1L289 3015.7L297.25 3016.35C301.788 3016.7 460.075 3016.99 649 3016.99C837.925 3016.99 996.213 3016.7 1000.75 3016.35L1009 3015.7V2944.5V2873.3L1000.75 2872.65C996.213 2872.3 963.785 2872.01 928.689 2872.01L864.879 2872L865.189 2801.08C865.36 2762.08 865.875 2729.79 866.333 2729.33C866.791 2728.88 928.936 2728.37 1004.43 2728.22L1141.7 2727.93L1142.34 2736.22C1142.7 2740.77 1142.99 2770.71 1142.99 2802.75L1143 2861H1148H1153V2866.5V2872H1220H1287V2867V2862H1292H1297L1297.01 2731.25C1297.01 2659.34 1297.3 2596.79 1297.65 2592.25L1298.3 2584H1364H1429.7L1430.35 2592.25C1430.7 2596.79 1430.99 2629.19 1430.99 2664.25L1431 2728H1503H1575V2722.5V2717H1580H1585L1585.21 2672.5C1585.33 2648.02 1585.44 2625.64 1585.46 2622.75L1585.5 2617.5L1580.25 2617.2L1575 2616.9V2605.95V2595H1569.5H1564V2573V2551H1569.5H1575V2534V2517H1580.5H1586V2495V2473H1591.5H1597V2456.5V2440H1591.5H1586V2434V2428H1580.5H1575V2417.5V2407H1580H1585V2390V2373H1580H1575V2367.5V2362H1579.98H1584.97L1585.23 2334.25L1585.5 2306.5L1591.25 2306.2L1597 2305.9V2300.95V2296H1619H1641V2284.5V2273H1635.5H1630V2262V2251H1625.15H1620.3L1619.65 2242.75C1619.3 2238.21 1619.01 2230.79 1619.01 2226.25L1619 2218H1613.5H1608V2201.5V2185H1602.5H1597V2157V2129H1591.5H1586V2062.5V1996H1591.5H1597V1968V1940H1602.5H1608V1926.15C1608 1918.53 1608.29 1908.86 1608.65 1904.65L1609.29 1897H1614.15H1619V1885.5V1874H1613.5H1608V1868.35V1862.7L1599.75 1863.35C1595.21 1863.7 1525.46 1863.99 1444.75 1863.99L1298 1864V1868.95V1873.9L1292.25 1874.2L1286.5 1874.5L1286.24 1935.75L1285.98 1997H1280.99H1276V2002V2007H1217.15C1184.78 2007 1154.86 2007.29 1150.65 2007.65L1143 2008.29V2223.5V2438.71L1150.65 2439.35C1154.86 2439.71 1184.53 2440 1216.6 2440H1274.9L1275.2 2445.25L1275.5 2450.5L1280.75 2450.8L1286 2451.1V2512.05V2573H1075.5H865V2512V2451H870.5H876V2445.5V2440H942.5H1009V2368.15V2296.3L1000.75 2295.65C996.213 2295.3 966.287 2295.01 934.25 2295.01L876 2295V2290V2285H870.5H865V2223.5V2162H870.5H876V2157V2152L934.25 2151.99C966.287 2151.99 996.213 2151.7 1000.75 2151.35L1009 2150.7V2078.85V2007H937H865V1940.5V1874H931.5H998V1868.5V1863H1003.5H1009V1791V1719H865H721V1652.5V1586L856.75 1585.99C931.412 1585.99 996.212 1585.7 1000.75 1585.35L1009 1584.7V1513.5V1442.3L1017.25 1441.65C1021.79 1441.3 1051.71 1441.01 1083.75 1441.01L1142 1441V1436V1431H1147.5H1153V1359.15V1287.3L1144.75 1286.65C1140.21 1286.3 1107.81 1286.01 1072.75 1286.01L1009 1286V1219.5V1153H937H865V1214V1275H859.5H854V1280.5V1286H787.5H721V1219.5V1153H649H577V1292V1431H582.5H588V1436V1441H649H710V1513.5V1586H643.5H577L576.994 1644.25C576.991 1676.29 576.699 1706.21 576.346 1710.75L575.704 1719H504.5H433.296L432.654 1727.25C432.301 1731.79 432.009 1741.69 432.006 1749.25L432 1763H427H422V1768.5V1774H427H432V1790.5V1807H427H422V1813V1819H427H432V1835.5V1852H427.05H422.1L421.8 1857.75L421.5 1863.5L377.5 1863.81C353.3 1863.98 323.488 1863.82 311.25 1863.45L289 1862.78V1724.45V1586.12L359.917 1585.81C398.922 1585.64 431.209 1585.12 431.667 1584.67C432.125 1584.21 432.5 1487.01 432.5 1368.67V1153.5L360.75 1153.24L289 1152.99L288.994 1211.24C288.991 1243.29 288.699 1273.21 288.346 1277.75L287.704 1286H221.352H155V1280.5V1275H150H145L144.994 1222.25C144.991 1193.24 144.699 1165.79 144.346 1161.25L143.704 1153L77.602 1153.19C41.246 1153.29 8.912 1153.54 5.75 1153.74ZM998 1364V1431L939.75 1430.99C907.713 1430.99 877.788 1430.7 873.25 1430.35L865 1429.7V1363.9V1298.1L870.75 1297.74C873.913 1297.54 903.838 1297.29 937.25 1297.19L998 1297V1364ZM1863 1364V1431H1796.5H1730V1364V1297H1796.5H1863V1364ZM2863.75 1441.65L2872 1442.3V1508.65V1575H2867.05H2862.1L2861.8 1580.25L2861.5 1585.5L2800.25 1585.76L2739 1586.02V1580.51V1575H2733.5H2728V1516.15C2728 1483.78 2728.29 1453.88 2728.64 1449.7L2729.28 1442.09L2734.39 1441.73C2743.74 1441.07 2855.37 1441 2863.75 1441.65ZM3726.01 1499.75C3726.01 1532.06 3726.3 1562.21 3726.65 1566.75L3727.3 1575H3732.15H3737V1580.5V1586H3803.5H3869.99L3870.25 1724.75L3870.5 1863.5L3875.75 1863.8L3881 1864.1V1869.05V1874H3948H4015L4014.99 1932.25C4014.99 1964.29 4014.7 1994.21 4014.35 1998.75L4013.7 2007H3941.85H3870V2217.5V2428H3865.05H3860.1L3859.8 2433.75L3859.5 2439.5H3798.5H3737.5L3737.25 2084.75L3737 1730H3731.5H3726V1724.5V1719H3659.5H3593V1580.55V1442.1L3598.75 1441.74C3601.91 1441.54 3631.84 1441.29 3665.25 1441.19L3726 1441L3726.01 1499.75ZM1143 1651.95V1717.9L1148.25 1718.2L1153.5 1718.5L1153.8 1724.25L1154.1 1730H1220.05H1286V1724.5V1719H1291.5H1297V1652.5V1586H1220H1143V1651.95ZM2029.67 1619.67C2029.3 1620.03 2029 1622.51 2029 1625.17V1630L2009.75 1630.01C1999.16 1630.01 1986.79 1630.3 1982.25 1630.65L1974 1631.3V1636.15V1641H1965.15C1960.28 1641 1952.86 1641.29 1948.65 1641.65L1941 1642.29V1647.11V1651.93L1929.75 1652.22L1918.5 1652.5L1918.2 1657.64L1917.9 1662.79L1906.95 1663.5L1896 1664.22V1669V1673.78L1885 1674.5L1874 1675.22V1680V1684.78L1863 1685.5L1852 1686.22V1691.61V1697H1846.5H1841V1702.5V1708H1830H1819V1713.5V1719H1813.5H1808V1724.5V1730H1802.5H1797V1735.5V1741H1791.5H1786V1746.5V1752H1780.5H1775V1757.5V1763H1769.55H1764.1L1763.8 1768.75L1763.5 1774.5L1757.75 1774.8L1752 1775.1V1785.55V1796H1746.5H1741V1802V1808H1735.5H1730V1813.5V1819H1724.5H1719V1830V1841H1713.5H1708V1852V1863H1702.5H1697V1874V1885H1691.53H1686.07L1685.78 1896.25L1685.5 1907.5L1680.36 1907.8L1675.23 1908.1L1674.5 1930.05L1673.77 1952H1669.04H1664.31L1663.66 1968.66C1663.3 1977.82 1663 1990.2 1663 1996.16V2007H1658H1653V2062.5V2118H1658H1663L1663 2128.75C1663.01 2134.66 1663.3 2147.26 1663.66 2156.75L1664.31 2174H1669.01H1673.7L1674.35 2182.25C1674.7 2186.79 1674.99 2194.21 1674.99 2198.75L1675 2207H1679.85H1684.7L1685.35 2215.25C1685.7 2219.79 1685.99 2227.21 1685.99 2231.75L1686 2240H1691.5H1697V2251V2262H1702.5H1708V2290V2318H1702.5H1697V2340V2362H1691.5H1686L1685.99 2375.75C1685.99 2383.31 1685.7 2393.21 1685.35 2397.75L1684.7 2406H1679.85H1675L1674.99 2414.75C1674.99 2419.56 1674.7 2427.21 1674.35 2431.75L1673.7 2440H1668.97H1664.23L1663.5 2462L1662.77 2484H1657.88H1653V2495V2506H1674.45H1695.9L1696.2 2500.75L1696.5 2495.5L1718.75 2495.23L1741 2494.96V2489.48V2484H1758H1775V2478.5V2473H1797H1819V2467.5V2462H1841H1863V2456.5V2451H1880H1897V2456.5V2462H1908H1919V2467.5V2473H1935.5H1952V2478.5V2484H1960.85C1965.72 2484 1973.14 2484.29 1977.35 2484.65L1985 2485.29V2490.15V2495L2001.25 2495C2010.19 2495 2025.26 2495.3 2034.75 2495.66L2052 2496.31V2501.16V2506H2102H2152V2501.16V2496.31L2168.66 2495.66C2177.82 2495.3 2190.2 2495 2196.16 2495H2207V2489.5V2484H2224H2241V2478.5V2473H2257.5H2274V2467.5V2462H2285H2296V2456.53V2451.07L2306.75 2450.78L2317.5 2450.5L2317.8 2445.36L2318.1 2440.21L2329.05 2439.5L2340 2438.78V2433.89V2429H2345.5H2351V2423.55V2418.1L2356.75 2417.8L2362.5 2417.5L2362.8 2412.34L2363.1 2407.19L2373.55 2406.47L2384 2405.76V2400.38V2395H2389.45H2394.9L2395.2 2389.75L2395.5 2384.5L2400.7 2384.2L2405.9 2383.9L2406.2 2378.7L2406.5 2373.5L2412.25 2373.2L2418 2372.9V2367.45V2362H2423H2428V2356.5V2351H2433.39H2438.78L2439.5 2340L2440.22 2329H2445.61H2451V2323.5V2318H2456.5H2462V2312V2306H2467.5H2473V2295.5V2285H2478.37H2483.74L2484.46 2274L2485.17 2263H2489.96H2494.76L2495.48 2251.5L2496.2 2240H2500.99H2505.78L2506.5 2229L2507.22 2218H2512.11H2517V2210.15C2517 2205.84 2517.29 2198.19 2517.65 2193.15L2518.3 2184H2522.99H2527.69L2528.34 2168.25C2528.7 2159.59 2529 2147.21 2529 2140.75L2529 2129H2534H2539V2057V1985H2534.12H2529.23L2528.5 1963L2527.77 1941H2522.88H2518V1933.15C2518 1928.84 2517.71 1921.19 2517.35 1916.15L2516.7 1907H2512H2507.3L2506.65 1898.75C2506.3 1894.21 2506.01 1886.79 2506.01 1882.25L2506 1874H2500.5H2495V1863V1852H2489.5H2484V1846.5V1841H2479.11H2474.22L2473.5 1830L2472.78 1819H2467.39H2462V1813V1807H2456.5H2451V1796.5V1786H2445.55H2440.1L2439.8 1780.25L2439.5 1774.5L2434.25 1774.2L2429 1773.9V1768.45V1763H2423.5H2418V1757.5V1752H2412.5H2407V1746.5V1741H2401.5H2396V1735.5V1730H2390H2384V1724.5V1719H2378.5H2373V1713.62V1708.24L2362.5 1707.52L2352 1706.81V1701.9V1697H2346H2340V1691.61V1686.22L2329 1685.5L2318 1684.78V1680V1675.22L2307.05 1674.5L2296.1 1673.79L2295.8 1668.64L2295.5 1663.5L2289.75 1663.2L2284 1662.9V1658.1V1653.3L2275.75 1652.65C2271.21 1652.3 2264.04 1652.01 2259.8 1652.01L2252.1 1652L2251.8 1646.75L2251.5 1641.5L2234.75 1641.23L2218 1640.95V1636.12V1631.3L2209.75 1630.65C2205.21 1630.3 2195.31 1630.01 2187.75 1630.01L2174 1630V1625.15V1620.3L2165.75 1619.65C2154.79 1618.8 2030.52 1618.81 2029.67 1619.67ZM2162.11 1697H2183.9L2184.2 1702.25L2184.5 1707.5L2201.25 1707.77L2218 1708.05V1713.52V1719H2234.5H2251V1724.5V1730H2262H2273V1735.5V1741H2279H2285V1746.39V1751.78L2296 1752.5L2307 1753.22V1758.11V1763H2312.5H2318V1768.5V1774H2323.5H2329V1779.39V1784.78L2340 1785.5L2351 1786.22V1791.61V1797H2356.5H2362V1802.5V1808H2367.38H2372.76L2373.47 1818.45L2374.19 1828.9L2379.34 1829.2L2384.5 1829.5L2384.8 1835.25L2385.1 1841H2390.05H2395V1846.5V1852H2400.39H2405.78L2406.5 1863L2407.22 1874H2412.61H2418V1885V1896H2423.5H2429V1907V1918H2434.5H2440V1929.5V1941H2445.5H2451V1963V1985H2456.5H2462V2062.5V2140H2456.5H2451V2157V2174H2445.5H2440V2190.5V2207H2434.5H2429V2218V2229H2423.61H2418.22L2417.5 2240L2416.78 2251H2411.94H2407.1L2406.8 2256.75L2406.5 2262.5L2401.34 2262.8L2396.19 2263.1L2395.48 2273.5L2394.77 2283.9L2389.63 2284.2L2384.5 2284.5L2384.2 2290.25L2383.9 2296H2379H2374.1L2373.8 2301.25L2373.5 2306.5L2367.75 2306.8L2362 2307.1V2312.55V2318H2356.5H2351V2323.5V2329H2345.5H2340V2334.5V2340H2334.5H2329V2345.5V2351H2323.5H2318V2356.37V2361.74L2307 2362.46L2296 2363.17V2368.03V2372.9L2290.25 2373.2L2284.5 2373.5L2284.2 2378.64L2283.9 2383.79L2272.95 2384.5L2262 2385.22V2390V2394.78L2251 2395.5L2240 2396.22V2401.11V2406L2231.75 2406.01C2227.21 2406.01 2219.79 2406.3 2215.25 2406.65L2207 2407.3V2412V2416.7L2197.85 2417.35C2192.81 2417.71 2182.91 2418 2175.85 2418H2163V2422.84V2427.69L2145.75 2428.34C2123.68 2429.18 2086.29 2429.18 2054.75 2428.34L2030 2427.68V2422.96V2418.25L2007.5 2417.51L1985 2416.78V2412.04V2407.3L1976.75 2406.65C1972.21 2406.3 1964.79 2406.01 1960.25 2406.01L1952 2406V2400.5V2395H1941.05H1930.1L1929.8 2389.75L1929.5 2384.5L1918.8 2384.22L1908.1 2383.93L1907.8 2378.72L1907.5 2373.5L1896.5 2373.18C1890.45 2373 1880.44 2373.16 1874.25 2373.53L1863 2374.2V2379.1V2384L1849.25 2384.01C1841.69 2384.01 1831.79 2384.3 1827.25 2384.65L1819 2385.3V2390.04V2394.78L1795.75 2395.48C1782.96 2395.87 1770.47 2396.03 1768 2395.84L1763.5 2395.5L1763.16 2391C1762.98 2388.53 1763.13 2380.99 1763.51 2374.25L1764.2 2362H1769.1H1774V2354.15C1774 2349.84 1774.29 2342.19 1774.65 2337.15L1775.3 2328H1780.03H1784.77L1785.5 2306L1786.23 2284H1791.12H1796V2278.5V2273H1791.03H1786.07L1785.78 2262.25L1785.5 2251.5L1780.36 2251.2L1775.21 2250.9L1774.5 2239.95L1773.78 2229H1768.99H1764.2L1763.48 2217.5L1762.76 2206H1758.03H1753.29L1752.65 2198.35C1752.29 2194.14 1752 2186.94 1752 2182.35V2174H1747.15H1742.3L1741.65 2165.75C1741.3 2161.21 1741.01 2151.09 1741.01 2143.25L1741 2129H1736.15H1731.3L1730.65 2120.75C1730.3 2116.21 1730.01 2090 1730.01 2062.5C1730.01 2035 1730.3 2008.79 1730.65 2004.25L1731.3 1996H1736.15H1741L1741.01 1981.75C1741.01 1973.91 1741.3 1963.79 1741.65 1959.25L1742.3 1951H1747.15H1752V1942.65C1752 1938.06 1752.29 1930.86 1752.65 1926.65L1753.29 1919H1758.03H1762.76L1763.48 1907.5L1764.2 1896H1768.99H1773.78L1774.5 1885L1775.22 1874H1780.11H1785V1868.5V1863H1790.39H1795.78L1796.5 1852L1797.22 1841H1802.61H1808V1835.5V1830H1813.5H1819V1824V1818H1823.95H1828.9L1829.2 1812.75L1829.5 1807.5L1835.25 1807.2L1841 1806.9V1801.45V1796H1846.5H1852V1790.5V1785H1857.5H1863V1779.5V1774H1868.45H1873.9L1874.2 1768.75L1874.5 1763.5L1880.25 1763.2L1886 1762.9V1758.05V1753.19L1896.45 1752.48L1906.9 1751.77L1907.2 1746.63L1907.5 1741.5L1918.25 1741.22L1929 1740.93V1735.47V1730H1940.5H1952V1724.5V1719H1963H1974V1713.5V1708H1996H2018V1702.52V1697.03L2046.25 1696.67C2061.79 1696.47 2089.31 1696.47 2107.41 1696.66C2125.52 1696.85 2150.13 1697 2162.11 1697ZM1913.34 1863.73L1908.19 1864.1L1907.47 1874.55L1906.76 1885H1901.38H1896V1890.5V1896H1891.11H1886.22L1885.5 1906.95L1884.79 1917.9L1879.64 1918.2L1874.5 1918.5L1874.19 1951.5C1874.02 1969.65 1874.18 1989.56 1874.54 1995.75L1875.2 2007H1879.98H1884.76L1885.48 2018.5L1886.2 2030H1890.99H1895.78L1896.5 2041L1897.22 2052H1901.99H1906.76L1907.47 2062.45L1908.19 2072.9L1913.34 2073.2L1918.5 2073.5L1918.8 2079.25L1919.1 2085H1924.55H1930V2090.5V2096H1934.89H1939.78L1940.5 2107L1941.22 2118H1946.61H1952V2123.5V2129H1957.5H1963V2134.5V2140H1968.5H1974V2145.5V2151H1979.45H1984.9L1985.2 2156.75L1985.5 2162.5L1990.7 2162.8L1995.9 2163.1L1996.2 2168.3L1996.5 2173.5L2001.7 2173.8L2006.9 2174.1L2007.2 2179.3L2007.5 2184.5L2013.25 2184.8L2019 2185.1V2190.55V2196H2024.5H2030V2201.5V2207H2041H2052V2212.5V2218H2057.5H2063V2223.5V2229H2074H2085V2234.5V2240H2096H2107V2245.5V2251H2115.85C2120.72 2251 2128.14 2251.29 2132.35 2251.65L2140 2252.29V2257.15V2262H2147.85C2152.16 2262 2159.81 2262.29 2164.85 2262.65L2174 2263.3V2268.15V2273H2212.5H2251V2268.1V2263.2L2262.5 2262.48L2274 2261.76V2256.98V2252.19L2284.5 2251.48L2295 2250.76V2245.38V2240H2300.39H2305.78L2306.5 2229L2307.22 2218H2312.61H2318V2190V2162H2312.5H2307V2157.11V2152.22L2296 2151.5L2285 2150.78V2145.99V2141.2L2273.5 2140.48L2262 2139.76V2134.96V2130.17L2251 2129.46L2240 2128.74V2124.02V2119.29L2232.35 2118.65C2228.14 2118.29 2218.24 2118 2210.35 2118H2196V2124V2130H2190.62H2185.24L2184.52 2140.5L2183.81 2151H2178.9H2174V2156.45V2161.9L2168.25 2162.2L2162.5 2162.5L2162.2 2167.75L2161.9 2173H2150.95H2140V2168.11V2163.22L2129 2162.5L2118 2161.78V2157V2152.22L2107 2151.5L2096 2150.78V2146V2141.22L2085 2140.5L2074 2139.78V2134.39V2129H2068.55H2063.1L2062.8 2123.75L2062.5 2118.5L2057.3 2118.2L2052.1 2117.9L2051.8 2112.7L2051.5 2107.5L2045.75 2107.2L2040 2106.9V2101.45V2096H2034.5H2029V2090.55V2085.1L2023.75 2084.8L2018.5 2084.5L2018.2 2079.25L2017.9 2074H2013H2008.1L2007.8 2068.25L2007.5 2062.5L2002.33 2062.2L1997.16 2061.9L1996.45 2050.95L1995.74 2040H1991.02H1986.29L1985.65 2032.35C1984.45 2018.23 1984.18 2019 1990.5 2019H1996V2013V2007H2001.5H2007V2001.5V1996H2012.35H2017.7L2018.35 1987.75C2018.7 1983.21 2018.99 1974.55 2018.99 1968.5C2018.99 1962.45 2018.7 1953.79 2018.35 1949.25L2017.7 1941H2013H2008.3L2007.65 1932.75C2007.3 1928.21 2007.01 1920.81 2007.01 1916.3L2007 1908.1L2001.75 1907.8L1996.5 1907.5L1996.22 1896.25L1995.93 1885H1990.47H1985V1874V1863L1951.75 1863.19C1933.46 1863.29 1916.18 1863.53 1913.34 1863.73ZM1431 2084.35V2150.7L1439.25 2151.35C1443.79 2151.7 1476.19 2151.99 1511.25 2151.99L1575 2152V2179.5V2207H1580H1585V2212.5V2218H1580H1575V2256.5V2295L1511.25 2295.01C1476.19 2295.01 1443.79 2295.3 1439.26 2295.65L1431.01 2296.29L1430.76 2367.9L1430.5 2439.5H1364.83C1328.72 2439.5 1298.79 2439.12 1298.33 2438.67C1297.46 2437.8 1296.58 2021.53 1297.44 2019.29C1297.84 2018.26 1311.16 2018 1364.47 2018H1431V2084.35ZM3149.2 2157.25L3149.5 2162.5L3154.75 2162.8L3160 2163.1V2223.55V2284H3155H3150V2289.5V2295H3083.65H3017.3L3016.65 2286.75C3015.81 2275.96 3015.81 2182.98 3016.65 2171.15L3017.3 2162H3022.65H3028V2157V2152H3088.45H3148.9L3149.2 2157.25ZM2861.2 2301.25L2861.5 2306.5L2866.75 2306.8L2872 2307.1V2372.95V2438.8L2860.75 2439.49C2845.41 2440.43 2730.37 2439.71 2729.33 2438.67C2728.88 2438.21 2728.36 2408.44 2728.19 2372.52L2727.87 2307.21L2739.44 2306.48L2751 2305.76V2300.88V2296H2805.95H2860.9L2861.2 2301.25ZM3150 2445.5V2451H3155H3160L3160.01 2581.25C3160.01 2652.89 3160.3 2715.21 3160.65 2719.74L3161.29 2727.99L3227.4 2728.24L3293.5 2728.5L3293.76 2800.25L3294.01 2872H3083.6H2873.2L2872.51 2860.75C2871.57 2845.41 2872.29 2730.37 2873.33 2729.33C2873.79 2728.88 2906.08 2728.36 2945.08 2728.19L3015.99 2727.88L3016.25 2589.19L3016.5 2450.5L3021.75 2450.2L3027 2449.9V2444.95V2440H3088.5H3150V2445.5ZM4004 2444.95V2449.9L4009.25 2450.2L4014.5 2450.5L4014.76 2511.75L4015.02 2573H3948.01H3881V2567.5V2562H3876H3871V2506.5V2451H3876.5H3882V2445.5V2440H3943H4004V2444.95ZM1707 2566.85V2571.71L1699.35 2572.35C1695.14 2572.71 1687.72 2573 1682.85 2573H1674V2578.5V2584H1696.5H1719V2573V2562H1713H1707V2566.85ZM288.346 2592.25C289.181 2602.98 289.181 2709.02 288.346 2719.75L287.704 2728H221.352H155V2722.5V2717H150H145V2656V2595H150.5H156V2589.5V2584H221.852H287.704L288.346 2592.25ZM2862 2589.5V2595H2867H2872V2661.5V2728H2800.65H2729.3L2728.65 2719.75C2728.3 2715.21 2728.01 2685.29 2728.01 2653.25L2728 2595H2733.5H2739V2589.5V2584H2800.5H2862V2589.5ZM2285 2800V2872H2223.5H2162V2866.5V2861H2157H2152V2800V2739H2157.5H2163V2733.5V2728H2224H2285V2800ZM3571 2733.5V2739H3576.5H3582V2805.5V2872H3515.5H3449V2800V2728H3510H3571V2733.5ZM1996.8 2877.75L1997.1 2883H2002.05H2007V3016.5V3150H2002H1997V3155V3160H1935.5H1874V3154.5V3149H1869H1864V3016.5V2884H1869H1874V2877.99V2871.99L1935.25 2872.24L1996.5 2872.5L1996.8 2877.75ZM3438 3233V3449H3227.65H3017.3L3016.65 3440.75C3016.3 3436.21 3016.01 3342.72 3016.01 3233C3016.01 3123.28 3016.3 3029.79 3016.65 3025.25L3017.3 3017H3227.65H3438V3233ZM6.25 3160.74L0 3161.09V3660.05V4159H5.5H11V4164V4169H504.5H998V4164V4159H1003.5H1009V3660.15V3161.3L1000.75 3160.65C992.382 3160 17.747 3160.09 6.25 3160.74ZM3166.85 3160.74L3161.19 3161.09L3160.45 3172.8C3159.59 3186.44 3160.52 3302.85 3161.5 3303.84C3161.87 3304.2 3191.72 3304.5 3227.83 3304.5H3293.5L3293.8 3299.25L3294.1 3294H3299.55H3305V3227.65V3161.3L3295.85 3160.65C3286.63 3160 3177.38 3160.07 3166.85 3160.74ZM1575 3211V3261H1580H1585V3266V3271H1580H1575V3282.5V3294H1508.5H1442L1441.88 3271.75C1441.82 3259.51 1441.67 3237.35 1441.54 3222.5C1441.42 3207.65 1441.54 3187.74 1441.81 3178.25L1442.31 3161H1508.66H1575V3211ZM2872 3443.35V3725.71L2864.35 3726.35C2854.43 3727.19 2747.03 3727.18 2736.25 3726.35L2728 3725.7V3587.35V3449H2661.5H2595V3443.5V3438H2589.5H2584V3371.51V3305.01L2650.75 3304.76L2717.5 3304.5L2717.8 3299.25L2718.1 3294H2723.05H2728V3235.15C2728 3202.78 2728.29 3172.86 2728.65 3168.65L2729.29 3161H2800.65H2872V3443.35ZM3870.19 3231.92C3870.36 3270.92 3870.88 3303.21 3871.33 3303.67C3871.79 3304.12 3904.01 3304.64 3942.94 3304.81L4013.71 3305.12L4014.35 3313.31C4015.18 3324 4015.18 3430.05 4014.35 3440.75L4013.7 3449H3941.85H3870V3510V3571H3865H3860V3576.5V3582H3798.5H3737V3587.5V3593H3731.5H3726V3660.01V3727.01L3659.75 3726.76L3593.5 3726.5L3593.25 3587.75L3592.99 3449H3659.5H3726V3443.5V3438H3731.5H3737V3299.5V3161H3803.44H3869.88L3870.19 3231.92ZM2162 3299V3304H2157H2152V3376.5V3449H2224H2296V3379.15C2296 3340.73 2295.71 3305.86 2295.35 3301.65L2294.71 3294H2228.35H2162V3299ZM854 3310.5V3316H859.5H865V3660V4004H859.5H854V4009.5V4015L504.75 4014.75L155.5 4014.5L155.198 4009.25L154.895 4004H149.948H145V3660V3316H150H155V3310.5V3305H504.5H854V3310.5ZM289 3660V3871H294H299V3876V3881H509.353H719.707L720.353 3873.35C720.709 3869.14 721 3771.94 721 3657.35V3449H505H289V3660ZM4026 3732V3737H4020.5H4015V3795.85C4015 3828.22 4014.71 3858.14 4014.35 3862.34L4013.71 3869.99L3942.1 3870.24L3870.5 3870.5L3870.25 4014.75L3869.99 4159H3875.5H3881V4164V4169H4019.35H4157.71L4158.35 4161.35C4158.71 4157.14 4159 4122.49 4159 4084.36V4015.01L4092.25 4014.76L4025.5 4014.5L4025.2 4009.25L4024.9 4004H4019.95H4015V3943.15V3882.3L4023.25 3881.65C4027.79 3881.3 4060.19 3881.01 4095.25 3881.01L4159 3881V3811.65C4159 3773.51 4158.71 3738.86 4158.35 3734.65L4157.71 3727H4091.85H4026V3732ZM3005.8 3793.5C3005.97 3824.3 3005.82 3854.11 3005.46 3859.75L3004.81 3870H2939.05H2873.3L2872.65 3861.75C2871.82 3851.02 2871.82 3755.98 2872.66 3745.24L2873.3 3736.99L2939.4 3737.24L3005.5 3737.5L3005.8 3793.5ZM1153 4020.5V4026H1148H1143V4091.95V4157.9L1148.25 4158.2L1153.5 4158.5L1153.8 4163.75L1154.1 4169H1220.05H1286V4164V4159H1291.5H1297V4092.5V4026H1292H1287V4020.5V4015H1220H1153V4020.5Z" fill="black"/>
</svg>
